Coordinates
version=1
nRows=27
nColumns=12
inDegrees=yes

Units are S.I. units (second, meters, Newtons, ...)
Angles are in degrees

endheader
time	SC_y	SC_z	SC_x	AC_y	AC_z	AC_x	GH_y	GH_z	GH_yy	EL_x	PS_y
       0.0               -39.9          17.85          80.48          53.19          8.771         -14.32         -163.3         -4.689          123.2          111.9          93.95
   0.02785               -39.9          17.85          80.47          53.18          8.771         -14.32         -163.2         -4.679          123.2          111.9          93.95
    0.0557               -39.9          17.85          80.47          53.18           8.77         -14.31         -163.2         -4.667          123.2          111.9          93.95
   0.08355               -39.9          17.85          80.47          53.18           8.77         -14.31         -163.1         -4.655          123.1          111.8          93.95
    0.1114               -39.9          17.84          80.47          53.17           8.77          -14.3         -163.1         -4.643          123.1          111.8          93.95
    0.1392              -39.89          17.84          80.47          53.17          8.769          -14.3         -163.0         -4.629          123.1          111.8          93.96
    0.1671              -39.89          17.84          80.47          53.16          8.769         -14.29         -163.0         -4.615          123.0          111.8          93.96
    0.1949              -39.89          17.84          80.47          53.16          8.769         -14.29         -162.9         -4.599          123.0          111.8          93.96
    0.2228              -39.89          17.83          80.47          53.15          8.768         -14.28         -162.8         -4.583          122.9          111.7          93.96
    0.2506              -39.88          17.83          80.46          53.15          8.768         -14.28         -162.8         -4.565          122.9          111.7          93.96
    0.2785              -39.88          17.82          80.46          53.14          8.768         -14.27         -162.7         -4.546          122.8          111.7          93.96
    0.3063              -39.88          17.82          80.46          53.14          8.767         -14.26         -162.6         -4.526          122.8          111.7          93.97
    0.3342              -39.87          17.81          80.46          53.13          8.767         -14.26         -162.5         -4.504          122.7          111.6          93.97
     0.362              -39.87          17.81          80.46          53.12          8.766         -14.25         -162.4          -4.48          122.6          111.6          93.97
    0.3899              -39.87           17.8          80.45          53.11          8.766         -14.24         -162.3         -4.454          122.6          111.6          93.97
    0.4177              -39.86           17.8          80.45          53.11          8.765         -14.23         -162.2         -4.426          122.5          111.5          93.98
    0.4456              -39.86          17.79          80.45           53.1          8.764         -14.22         -162.1         -4.396          122.4          111.5          93.98
    0.4734              -39.85          17.78          80.44          53.09          8.764         -14.21         -162.0         -4.363          122.3          111.4          93.98
    0.5013              -39.85          17.78          80.44          53.07          8.763          -14.2         -161.8         -4.327          122.2          111.4          93.99
    0.5291              -39.84          17.77          80.44          53.06          8.762         -14.18         -161.7         -4.287          122.1          111.3          93.99
     0.557              -39.84          17.76          80.43          53.05          8.761         -14.17         -161.5         -4.244          122.0          111.3           94.0
    0.5848              -39.83          17.75          80.43          53.03           8.76         -14.15         -161.3         -4.196          121.8          111.2           94.0
    0.6127              -39.82          17.74          80.42          53.02          8.759         -14.13         -161.1         -4.143          121.7          111.1          94.01
    0.6405              -39.81          17.72          80.42           53.0          8.758         -14.11         -160.8         -4.084          121.5          111.1          94.01
    0.6684               -39.8          17.71          80.41          52.98          8.756         -14.09         -160.6         -4.019          121.3          111.0          94.02
    0.6962              -39.79          17.69           80.4          52.96          8.755         -14.06         -160.3         -3.947          121.1          110.9          94.03
    0.7241              -39.78          17.68           80.4          52.93          8.753         -14.04         -159.9         -3.865          120.9          110.8          94.04
